<?xml version="1.0" encoding="utf-8"?>
<!-- Generator: Adobe Illustrator 25.4.1, SVG Export Plug-In . SVG Version: 6.00 Build 0)  -->
<svg version="1.1" id="Layer_1" xmlns="http://www.w3.org/2000/svg" xmlns:xlink="http://www.w3.org/1999/xlink" x="0px" y="0px"
	 viewBox="0 0 40.7 139.2" style="enable-background:new 0 0 40.7 139.2;" xml:space="preserve">
<style type="text/css">
	.st0{fill:#1C1C1C;}
	.st1{fill:#FFFFFF;}
</style>
<g id="Layer_2_00000157273045997560877940000013563556791983261349_">
	<g id="Layer_9">
		<path class="st0" d="M8,23.3c-0.8,0.3-3.8,1.6-4.2,1.8s-0.7,0-1,0.7c-0.4,0.7-0.7,1.5-1,2.3c-0.1,0.8-0.2,1.5-0.4,2.3
			c-0.1,0.4-0.3,1.5-0.4,2.2c-0.3,0.8-0.5,1.6-0.6,2.5c0.1,0.5-0.5,1.8-0.4,3.2s-0.1,2.5,0,3.7c0,1.3,0.1,2.7,0.3,4
			c0.3,0.7,0.1,1.9,0.3,2.9s0.5,3,0.8,4s0.2,2.9,0.9,4.2s1.4,2.5,2,3.5c0.4,0.6,0.6,1.3,0.8,2c0.1,1,0.2,1.9,0.3,2.9
			c0.2,0.6,0.4,1.2,0.5,1.5s-0.1,0.5-0.1,0.6c-0.7,1.8-1.2,3.6-1.5,5.5c-0.3,2.1-0.1,4.2,0.7,6.1C6,82.5,6.4,84.8,6.8,86
			s1,5.1,1.5,7.3s0,3.6,0.4,4.1c0.5,0.5,0.5,1.3,0.2,1.9c-0.4,0.4-0.8,1.6-0.4,1.7s0,1.6,0,2.3s-0.6,7.3-0.4,10.7s0.2,7.8,0.5,8.2
			s-0.1,1.6-0.2,2.2s-0.7,0.7-0.2,1.6s-0.3,1.6-0.5,2.4s0,0.8,0.4,1.6s-0.3,0.8-0.2,1.7c0,0.3,0.4,1.2,0.6,1.9
			c0.1,0.1,0.2,0.2,0.3,0.3c0.4,1.9-1,2-0.2,4.4c0.3,1,0.6,1,2.4,0.9c2.1,0,6.2,0.3,6.2-0.5c0-2.5-0.9-3.1-0.9-3.7
			c0-0.1,0.1-0.2,0.1-0.2h-0.1c0.2-0.6,0.3-1.3,0.3-1.9c-0.2-0.9-0.4-1.8-0.4-2.8c-0.1-1,0.7-1.9,0.6-3.2s-1.2-4.2-1.1-5.1
			s1.3-4.2,1.3-6.9c0.2-3.6,0.5-7.2,1.1-10.7c0.2-0.6,0.7-0.7,0.7-1.1c0-0.4,0.1-0.8,0.2-1.3c0.2-0.7,0.4-1.3,0.8-1.9
			c0.1-0.1,0.2-0.3,0.3-0.5c0,0.4,0.1,0.7,0.4,1c0.5,0.5,0.7,1.1,0.5,1.8c-0.1,0.5,0.6,0.8,0.5,1.4c-0.3,0.7-0.4,1.4-0.3,2.1
			c0.2,2.2,0.2,4.4,0.2,6.6c-0.1,0.8,0.2,3.9,0.2,4.3c-0.4,1.4-0.6,2.8-0.6,4.3c0.3,1.3,0.5,2.6,0.6,3.9c-0.1,1-1.1,0.8-1.2,1.3
			c-0.1,0.9,0.2,1.8,0.7,2.5c0.6,0.8-0.6,1.1-0.6,1.8c0,0.5,0,1,0.1,1.5c0,0.8,0,1.6,0,2.4l0.1,0.1c0,0.1,0,0.2,0.1,0.3
			c0.3,1.2,0.1,0.9-0.2,2.3s0,2.2,0.6,2.2h5.1c1.6,0,3.1,0.4,3.2-0.6c0.3-2.7-1-1.5-1-3.7c0-0.1,0-0.2,0-0.2l0,0c0-0.2,0-0.4,0-0.6
			c0-0.1,0-0.2,0-0.4l0,0c0-0.6,0-1.2,0-1.2s0.4-1.9,0.8-2.9c0.2-0.5,0.2-1.1,0.1-1.7l0.2-2.1c0.8-2.9,1.2-5.9,1.3-8.9
			c-0.2-3.6,0.6-9.7,0.6-12.9s0.8-3,0.5-4.2c-0.2-1.3-0.2-2.5-0.2-3.8c-0.1-0.9-0.1-1.7,0-2.6c0.2-1,0.3-3,0.3-3l0.7-3.8l2.2-5.7
			c0.7-1.4,1.3-2.8,1.8-4.3c0.3-1.5,0.9-2.7,0.3-4.7c0.8-0.8,1.3-1.9,1.2-3.1c-0.2-1.4-0.5-3.7-1-6c0-0.1,0.1-0.2,0.2-0.3
			c1-2.1,1.9-4.2,2.6-6.4c0-0.8,0-1.5,0.2-2.3c0.4-0.9,0.5-1.9,0.4-2.9c0-1,0.1-2,0.3-2.9c0-1.3,0-2.6-0.2-3.9c-0.1-1.3-1-6.9-1-8.7
			c-0.1-1.7-0.5-3.3-1.1-4.9c-0.4-1.2-1.2-5.2-1.8-5.5s-1-0.6-1.6-0.9s-3.8-1.6-4.3-1.9c-0.6-0.3-1.2-0.4-1.9-0.3
			c-0.6,0-0.5-0.9-1.2-0.9s-0.6,0.3-1.1-0.3c-0.3-0.3-0.6-0.6-1-0.9c0-0.3-0.1-0.6-0.1-0.9c0.6,0,1.1,0,1.7-0.2
			c1.1-0.3,3.3-2.3,3.7-5.6S30.3,0.5,23.5,1c-0.5,0.1-1,0-1.4-0.3c-0.5-0.5-1.7-1.1-4.2-0.4s-6,5.7-7,8.8c-0.6,2.4-0.7,4.9-0.1,7.2
			l0.1,1.3c0.7,1,0.9,2.3,3.4,1.7c0.5-0.1,0.5-0.2,0.7-0.3c0,0,0,0.2,0,0.4c-0.1,0-0.2,0.1-0.2,0.2c-0.3,0.5-0.7,1-0.9,1.6
			C13.8,21.8,14,22,13,22c-0.2,0-0.4,0-0.6,0.1L8,23.3z"/>
	</g>
</g>
<g>
	<path class="st1" d="M13.4,34.6c0.4-0.4,0.9-0.7,1.3-1c0.5-0.3,1-0.6,1.6-0.8c0.6-0.2,1.2-0.4,1.8-0.6c0.7-0.1,1.4-0.2,2.1-0.2
		c1,0,2,0.1,2.9,0.4c0.9,0.3,1.6,0.7,2.2,1.2c0.6,0.5,1.1,1.2,1.4,1.9c0.3,0.8,0.5,1.6,0.5,2.5c0,0.9-0.1,1.7-0.4,2.4
		c-0.3,0.7-0.6,1.2-1,1.7c-0.4,0.5-0.8,0.9-1.3,1.3c-0.5,0.4-0.9,0.7-1.3,1c-0.4,0.3-0.8,0.6-1.1,0.9c-0.3,0.3-0.5,0.7-0.5,1
		l-0.4,2.6h-3l-0.3-2.9c0-0.1,0-0.1,0-0.2c0,0,0-0.1,0-0.2c0-0.5,0.1-1,0.4-1.4c0.3-0.4,0.6-0.8,1-1.1c0.4-0.3,0.8-0.7,1.3-1
		c0.5-0.3,0.9-0.7,1.3-1.1c0.4-0.4,0.7-0.8,1-1.3c0.3-0.5,0.4-1,0.4-1.7c0-0.4-0.1-0.8-0.2-1.2c-0.2-0.3-0.4-0.6-0.7-0.9
		c-0.3-0.2-0.6-0.4-1-0.6c-0.4-0.1-0.8-0.2-1.3-0.2c-0.7,0-1.3,0.1-1.7,0.2c-0.5,0.1-0.9,0.3-1.2,0.5s-0.6,0.4-0.8,0.5
		C15.9,37,15.7,37,15.5,37c-0.4,0-0.7-0.2-0.9-0.5L13.4,34.6z M16.8,55.9c0-0.4,0.1-0.7,0.2-1.1c0.1-0.3,0.3-0.6,0.6-0.9
		c0.2-0.2,0.5-0.4,0.9-0.6c0.3-0.1,0.7-0.2,1.1-0.2c0.4,0,0.7,0.1,1.1,0.2s0.6,0.3,0.9,0.6c0.2,0.2,0.4,0.5,0.6,0.9
		c0.1,0.3,0.2,0.7,0.2,1.1c0,0.4-0.1,0.7-0.2,1.1c-0.1,0.3-0.3,0.6-0.6,0.9c-0.2,0.2-0.5,0.4-0.9,0.6s-0.7,0.2-1.1,0.2
		c-0.4,0-0.7-0.1-1.1-0.2c-0.3-0.1-0.6-0.3-0.9-0.6c-0.2-0.2-0.4-0.5-0.6-0.9C16.9,56.6,16.8,56.3,16.8,55.9z"/>
</g>
</svg>
