<svg xmlns="http://www.w3.org/2000/svg" width="45.74" height="144.83" viewBox="0 0 45.74 144.83"><defs><style>.cls-1{fill:#1c1c1c;}</style></defs><g id="Layer_2" data-name="Layer 2"><g id="Layer_5" data-name="Layer 5"><path class="cls-1" d="M45.56,51.94s-1.65-21.52-5.5-27.83l-2.56-.92a27.92,27.92,0,0,1-4-2c-1.19-.73-3.39-1-4.3-1.38a2.66,2.66,0,0,1-1.47-1.37s-.07-.06-.15-.1,0-.16.05-.22c.13-.32.26-.77.48-1.37a7.11,7.11,0,0,0,.17-2.39s.8.41,1-1,.64-2,.64-2.55.12-1.37-.67-1.47L29,9.25s.64-3.64-.57-5.55A7.84,7.84,0,0,0,22.13,0c-3.06,0-6.83,2.46-7,5S14.7,9.28,15,9.89c0,0-.7-.2-.7.22s.35.51.57,1.11-.12,1.22,0,1.66.29.58.45.61a9.24,9.24,0,0,1,.19,2.36,6.14,6.14,0,0,0,1.12,2.77,3.35,3.35,0,0,1,.41.47,3.14,3.14,0,0,0-.64.35c-.36.27-4.67,1.65-6.77,2.65a32.69,32.69,0,0,0-5.13,2.75c-.55.55-2.29,5.95-2.93,11.08S.42,51,.52,52.39s-.46,2.38.18,3,1.1.91,1.1,1.46A9.06,9.06,0,0,0,2,60c.37.73,1.19,2.38.92,3.3s-1,2.2-.46,2.84S4,68.6,4.54,69.06c.29.24.23.4.14.57l0,0h0a.43.43,0,0,0,0,.5,8.61,8.61,0,0,0,.91,2A2.45,2.45,0,0,1,6,73.57c-.22.49-.36,1-.19,1.19.38.5,1.81,2.06,1.68,2.93s-.68,3.49-.06,4.86a10.07,10.07,0,0,1,1.06,5.1c0,2.74.62,3,.5,4.67a49.58,49.58,0,0,0,.12,8.09,19.24,19.24,0,0,1,.5,8.28C9,113.43,8.21,116.1,8.27,117s1.19,2,.94,5,0,3.36-.25,4.67a22.89,22.89,0,0,0-.25,5.23,2.55,2.55,0,0,1,.75,1.49c0,.75-.52,3.33-.27,3.89a2,2,0,0,1,.09.25h.15c.12.17-1.39,1.49-3.14,2.54s-4.51-.07-5.13.55-1.51,2-1,2.78,2.8,1.15,8.3,1.32c3.28.11,3.37,0,4.52,0s2.27.05,2.27.05,3.08.28,3.41-1c.27-1.05-.25-2.9-.6-4.11h0a.9.9,0,0,0-.08-.82c-.19-.31-.55-4.94-.23-5.69a4.07,4.07,0,0,0,.12-1.86,4.63,4.63,0,0,1-1-2.87c.13-1.49-.56-3.11-.18-4.36s1.37-1.3,1.68-8,.81-11.95,1.12-14.13a52.75,52.75,0,0,0,.37-9.71c-.25-3.12.81-7.22.94-8.1s.68-1.74.62-2.55A3.17,3.17,0,0,1,21.84,80s.69-.69,1.17-.36c0,0,.33-.26.39,1.86s-.18,4.73-.06,6.91.19,2.8-.19,3.55A4.66,4.66,0,0,0,23,95c.31.87-.38,1.68-.5,3s-.06,3.86-.13,4.79,1.06,2.37.94,3a7.57,7.57,0,0,0-.25,2.68c.13,1.37-.44,1.3-.44,2.67s.13,3.43.13,4.55.19,5.73.06,6.41-.31.75-.5,1.68.06,2.87-.31,3.68-.5,1.12-.43,1.43.62.68.18,1.62a3.35,3.35,0,0,0-.5,2.8c.23.74.38,1.15.54,1.57s.21.58.34,1a1.18,1.18,0,0,1,.06.61,5.3,5.3,0,0,1,.65,1.78,34.12,34.12,0,0,0-.34,4.72c.08,1.85.66,1.81,1.48,1.81H35s1.27-1.67-.15-2.92a4.83,4.83,0,0,0-3.17-1.09,4,4,0,0,1-1.4-1.5c0-.19-.34-.43-.36-.49h0a12.87,12.87,0,0,1-.52-2,12.89,12.89,0,0,0,.12-3.11c-.06-.68,1-.62,1.19-1.06a10,10,0,0,1,.49-2,10.06,10.06,0,0,0,1.19-4.73c0-2.74-.44-4-.38-6.6s-.12-8.16-.18-9.34-.44-1.18,0-2.24a16.62,16.62,0,0,0,.93-6c-.25-1.49,1.06-2.61,1.31-4.35s1.37-7.6,1.74-9.9.87-2.56,1.31-4.3a16.83,16.83,0,0,1,1.18-4,11.74,11.74,0,0,0,1.5-3.92,5.45,5.45,0,0,0,0-1.07l.1.18s1.28-3.21,1.47-3.67.73-.45.64-.82-.55-.55-.55-.55,2-2.65,2.38-3.39a3.18,3.18,0,0,0-.28-2.38,2.86,2.86,0,0,1,.28-2,19,19,0,0,0,.55-4.12,5.63,5.63,0,0,1,.18-1.83s1.19-.73,1.19-1.74A11.16,11.16,0,0,0,45.56,51.94Zm-9,3.18c-.4-.86-.76-.75-1.19-1.15s-.25-.86-.14-1.72,0-4.66,0-5.49-.18-3.12-.18-3.66-.11-2.83.46-3.05c.27-.1.37.07.39.35-.24.66-.63,1.68-.3,1.91a.74.74,0,0,0,0,.25c.07.36.14.26.46.9s-.11.9,0,1.62.32.35.5,1.43.14,1.69.22,2.62.43.39.75,1.33-.47.72-.75,1.25.35.33.64,1.26-.29,3.41-.68,3.52S37,56,36.59,55.12Z"/></g></g></svg>