<svg xmlns="http://www.w3.org/2000/svg" width="40.7" height="139.17" viewBox="0 0 40.7 139.17"><defs><style>.cls-1{fill:#1c1c1c;}</style></defs><g id="Layer_2" data-name="Layer 2"><g id="Layer_9" data-name="Layer 9"><path class="cls-1" d="M40.41,44.3c-.11-1.33-1-6.9-1-8.7a17.15,17.15,0,0,0-1.06-4.88c-.42-1.22-1.22-5.2-1.8-5.52s-1-.63-1.6-.9-3.81-1.59-4.29-1.91a3.72,3.72,0,0,0-1.86-.31c-.58,0-.53-.91-1.16-.91s-.64.27-1.12-.31a5,5,0,0,0-1-.88c0-.29-.07-.57-.11-.87a4.45,4.45,0,0,0,1.69-.19c1.11-.29,3.33-2.27,3.71-5.6S30.34.52,23.48,1A1.66,1.66,0,0,1,22.13.72C21.6.23,20.44-.39,17.93.33s-6,5.7-7,8.83a15.79,15.79,0,0,0-.14,7.25l.14,1.3a1,1,0,0,0-.53.53,14.35,14.35,0,0,1-2.56,2.37,7.82,7.82,0,0,0-2.11,3.94c-.79.32-1.58.35-2,.55s-.68,0-.95.74a17.44,17.44,0,0,0-1,2.28,17.69,17.69,0,0,1-.37,2.28c-.1.43-.26,1.49-.37,2.18a12.23,12.23,0,0,0-.58,2.49c.1.53-.53,1.85-.43,3.18S-.11,40.74.05,42a35.9,35.9,0,0,0,.27,4c.26.74.1,1.91.32,2.87s.53,3,.79,4,.16,2.87.85,4.19,1.38,2.49,2,3.55a6,6,0,0,1,.75,2,24.16,24.16,0,0,1,.26,2.92c.16.57.37,1.24.47,1.52s-.08.46-.1.6a26.93,26.93,0,0,0-1.46,5.48,12.24,12.24,0,0,0,.67,6.12C6,82.5,6.39,84.84,6.81,86s1,5.11,1.51,7.29,0,3.61.42,4.11a1.66,1.66,0,0,1,.16,1.93c-.42.42-.83,1.59-.42,1.68s0,1.59,0,2.26-.58,7.3-.41,10.65.25,7.8.5,8.22-.09,1.59-.17,2.18-.67.67-.25,1.59-.34,1.59-.5,2.43,0,.76.42,1.59-.34.76-.17,1.68c0,.27.42,1.22.59,1.85.1.12.2.2.3.3.39,1.92-1,2-.2,4.41.32,1,.61,1,2.45.95,2.1,0,6.19.27,6.21-.53,0-2.53-.88-3.06-.91-3.71a.85.85,0,0,1,.11-.25l-.07,0a7.2,7.2,0,0,0,.32-1.95,18,18,0,0,1-.42-2.77c-.08-1,.67-1.92.59-3.18s-1.17-4.19-1.09-5.12,1.26-4.19,1.34-6.87A101.79,101.79,0,0,1,18.21,104c.25-.59.67-.67.67-1.09a9,9,0,0,1,.17-1.26,5.85,5.85,0,0,1,.84-1.92,1.71,1.71,0,0,0,.28-.46,1.4,1.4,0,0,0,.39,1,1.87,1.87,0,0,1,.5,1.76c-.08.5.59.84.51,1.42a4.43,4.43,0,0,0-.34,2.1,60.09,60.09,0,0,1,.17,6.62c-.09.84.25,3.86.17,4.28a17.68,17.68,0,0,0-.59,4.28,22.51,22.51,0,0,1,.59,3.94c-.09,1-1.1.75-1.18,1.34a3.9,3.9,0,0,0,.67,2.51c.59.84-.59,1.1-.59,1.77a12,12,0,0,0,.09,1.51,20.77,20.77,0,0,1,0,2.44l.09.11a2.82,2.82,0,0,0,.07.31c.34,1.22.13.92-.22,2.32s0,2.17.56,2.17H26.2c1.62,0,3.12.36,3.23-.58.32-2.7-1.05-1.52-1-3.69a2.07,2.07,0,0,1,0-.24l0,0c0-.17,0-.38,0-.6a3.05,3.05,0,0,0,0-.36h0c0-.61,0-1.19,0-1.19s.42-1.93.76-2.85a2.79,2.79,0,0,0,.08-1.68l.17-2.1A36.28,36.28,0,0,0,30.7,117c-.16-3.6.59-9.72.59-12.91s.76-3,.5-4.19a22.59,22.59,0,0,1-.16-3.78,12.17,12.17,0,0,1,0-2.6c.16-1,.33-3,.33-3l.67-3.78,2.18-5.7a25.13,25.13,0,0,0,1.76-4.27c.33-1.49.9-2.73.28-4.68A4.22,4.22,0,0,0,38.07,69c-.17-1.45-.5-3.73-1-6a2.09,2.09,0,0,1,.15-.3,58.58,58.58,0,0,0,2.59-6.42A8,8,0,0,1,40,54a5.85,5.85,0,0,0,.37-2.87,12.5,12.5,0,0,1,.26-2.91A26.5,26.5,0,0,0,40.41,44.3Zm-28-24a9.47,9.47,0,0,1,.58-1c.14-.34.58-.1,1.11-.15s.72.15.92,0c0,0,0,.16,0,.41a1.33,1.33,0,0,0-.23.17,9.73,9.73,0,0,0-.9,1.59c-.1.43.11.64-.85.69a5,5,0,0,0-.57.06A2.92,2.92,0,0,1,12.38,20.27Z"/></g></g></svg>