<svg xmlns="http://www.w3.org/2000/svg" width="36.14" height="136.39" viewBox="0 0 36.14 136.39"><defs><style>.cls-1{fill:#1c1c1c;}</style></defs><g id="Layer_2" data-name="Layer 2"><g id="Layer_7" data-name="Layer 7"><path class="cls-1" d="M36,29.77c-.26-.27-1.57-1.48-1.64-2s-.26-2.69-.26-2.69l-2-2.14a20.17,20.17,0,0,0-2.67-1.12,8.45,8.45,0,0,1-.72-2.64,78.24,78.24,0,0,0-1.1-8.26C27.2,9.42,25.49-.22,20.63,0a3.44,3.44,0,0,0-2.18.38,5.81,5.81,0,0,0-3.2,1c-1.66,1.11-3.49,4.27-4.09,6.4S8.63,14.52,8.59,16s-.21,1.8-.64,2.18a2.7,2.7,0,0,0-.34,2.34c.3.43.94.82,1.07,1.33s-.25.72-.68.82A8,8,0,0,0,5.81,23c-.65.27-2.29,1.08-2.74,2.08S3,26.82,2.61,27.22.59,30.51,0,30.91a5.18,5.18,0,0,0,.24.54l-.17-.07a6.67,6.67,0,0,0,1.73,2.3c-.06,3-.19,10-.27,12.82-.09,3.68-.24,7.16.25,9.17s1.28,3.94,1.57,6,.69,5.7,1,6.41A16.77,16.77,0,0,1,5,71.26a1.81,1.81,0,0,0,.21.7,11.68,11.68,0,0,0-.29,2.87c.17,2.24,1,12.79,1.3,14.58a45.71,45.71,0,0,1,.44,7.42,19.58,19.58,0,0,0,0,3.4,2,2,0,0,1,.87,1.61,7.37,7.37,0,0,0-.18,2.32c.18.81.09,5.9.44,7.78s1.65,7.87,1.83,9.12.69,3.85.78,4.47c.05.4.07.84.08,1.1l-.08.78-.78.36a10.69,10.69,0,0,0,.26,2c.15.4.74,1.15,2.43,1.17a3.11,3.11,0,0,0,0,.8c.07.34,0,.41-.26,1.1s-.91.77-1.05,1.27-2.12.27-2.12,1.47.75.76,1.61.76h7.62a2,2,0,0,0,0-1.53c-.35-.72-.44-.72-.37-1.29s.09-1,.09-1l-.16-1.05a4.07,4.07,0,0,0-.18-.76c.33-.1.54-.26.59-.51.17-1,.26-2.23.26-2.23l-.79-1.08a27.08,27.08,0,0,1-.69-3.21v-12a30.16,30.16,0,0,0-.26-4.74,7,7,0,0,0-.31-1L16,104.4a.34.34,0,0,1,.06-.06,1.52,1.52,0,0,0,.52-2c-.35-1.07,0-3,.26-4.47s.26-4.65.35-7.06a13,13,0,0,1,.78-4c.17-.81,1-2.06.69-2.87a9.64,9.64,0,0,1-.43-2.41,4.93,4.93,0,0,1,1,2.5,16.89,16.89,0,0,0,.17,4.12c.26,1.43-.09,4.83.09,6.26s-.61,4.38-.35,5.45.17,2.24.61,2.86a3.12,3.12,0,0,1,.26,2.15,5.58,5.58,0,0,0,.09,1.52,12.47,12.47,0,0,0-.87,3.84c0,1.7-.26,6.89-.18,7.42s.44,4.56.35,4.83a2.78,2.78,0,0,0-.26,2l.35,1.43-.88,2.24a6.3,6.3,0,0,0,.35,1.88c.09.13.36.16.74.17a7.37,7.37,0,0,1-.14,1.41c-.17.77-.19.79,0,1.3s.33.57.12,1.15-.35.48-.33,1.24.19,1.08.56,1.08h7s.59-.79.12-1.34-.89-.74-1-1-.53-.6-.58-1,0-.7-.3-1a3.79,3.79,0,0,1-.56-.79l0-.78a5.2,5.2,0,0,0,1.47-.17c.44-.18.59-2.65.56-3S26,126.76,26,126s1.77-8.29,1.86-10.07.09-2.87.26-4.56.18-3.22.18-3.22.69-2.24.34-3.22c0,0,0-.06,0-.09s.09-.21-.07-.3a7.36,7.36,0,0,1,.18-2.38A39.17,39.17,0,0,1,29,96.38c.35-1.25.61-4,1-5.09s.78-3,.78-3a25.63,25.63,0,0,1-.18-4.82l.87-3.22.35-3V72.07h0s0-.38,0-1c.25-.83.32-1.72.5-2.22a18.52,18.52,0,0,0,.91-4.1c.07-1.27,0-2-.07-3.28,0-1.54.49-6.81.59-9.59a28.45,28.45,0,0,0-.19-5.3,24.11,24.11,0,0,1-.13-5.43c.18-2.87,1.11-8.75,1.24-9.56a7.63,7.63,0,0,0,1.17-1C36.22,30.1,36.22,30,36,29.77ZM6.83,55c0-1.16-.44-6.3-.49-7.36a28.2,28.2,0,0,1,.1-2.83s0-3.63-.1-5.09c0-.17,0-.36-.06-.56l0,.18a24.53,24.53,0,0,1,.26,3,17.12,17.12,0,0,1,.46,3.08,21.89,21.89,0,0,0,.39,5c.26.67-.33,2.21-.2,3.08A28.5,28.5,0,0,1,7,58.07a1.76,1.76,0,0,1-.05.27C6.88,56.94,6.83,55.57,6.83,55Z"/></g></g></svg>