<?xml version="1.0" encoding="utf-8"?>
<!-- Generator: Adobe Illustrator 25.4.1, SVG Export Plug-In . SVG Version: 6.00 Build 0)  -->
<svg version="1.1" id="Layer_1" xmlns="http://www.w3.org/2000/svg" xmlns:xlink="http://www.w3.org/1999/xlink" x="0px" y="0px"
	 viewBox="0 0 45.7 144.8" style="enable-background:new 0 0 45.7 144.8;" xml:space="preserve">
<style type="text/css">
	.st0{fill:#1C1C1C;}
	.st1{fill:#FFFFFF;}
</style>
<g id="Layer_2_00000161599920022961945030000005340149037395418246_">
	<g id="Layer_5">
		<path class="st0" d="M45.6,51.9c0,0-1.7-21.5-5.5-27.8l-2.6-0.9c-1.4-0.6-2.7-1.2-4-2c-1.2-0.7-3.4-1-4.3-1.4
			c-0.7-0.2-1.2-0.7-1.5-1.4c0,0-0.1-0.1-0.1-0.1s0-0.2,0-0.2c0.1-0.3,0.3-0.8,0.5-1.4c0.2-0.8,0.2-1.6,0.2-2.4c0,0,0.8,0.4,1-1
			s0.6-2,0.6-2.6s0.1-1.4-0.7-1.5L29,9.2c0,0,0.6-3.6-0.6-5.6c-1.4-2.2-3.7-3.6-6.3-3.7c-3.1,0-6.8,2.5-7,5S14.7,9.3,15,9.9
			c0,0-0.7-0.2-0.7,0.2s0.4,0.5,0.6,1.1s-0.1,1.2,0,1.7s0.3,0.6,0.4,0.6c0.2,0.8,0.2,1.6,0.2,2.4c0.1,1,0.5,2,1.1,2.8
			c0.2,0.1,0.3,0.3,0.4,0.5c-0.2,0.1-0.4,0.2-0.6,0.4c-0.4,0.3-4.7,1.6-6.8,2.6c-1.8,0.8-3.5,1.7-5.1,2.8c-0.5,0.5-2.3,5.9-2.9,11.1
			S0.4,51,0.5,52.4s-0.5,2.4,0.2,3s1.1,0.9,1.1,1.5C1.7,57.9,1.7,59,2,60c0.4,0.7,1.2,2.4,0.9,3.3c-0.3,0.9-1,2.2-0.5,2.8
			s1.5,2.5,2.1,2.9c0.3,0.2,0.2,0.4,0.1,0.6l0,0l0,0c-0.1,0.1-0.1,0.4,0,0.5c0.2,0.7,0.5,1.4,0.9,2C5.9,72.6,6,73.1,6,73.6
			c-0.2,0.5-0.4,1-0.2,1.2c0.4,0.5,1.8,2.1,1.7,2.9s-0.7,3.5-0.1,4.9c0.8,1.6,1.2,3.3,1.1,5.1c0,2.7,0.6,3,0.5,4.7
			c-0.2,2.7-0.1,5.4,0.1,8.1c0.8,2.7,0.9,5.5,0.5,8.3c-0.6,4.7-1.4,7.4-1.3,8.3s1.2,2,0.9,5s0,3.4-0.2,4.7c-0.3,1.7-0.4,3.5-0.2,5.2
			c0.4,0.4,0.7,0.9,0.8,1.5c0,0.8-0.5,3.3-0.3,3.9c0,0.1,0.1,0.2,0.1,0.2h0.1c0.1,0.2-1.4,1.5-3.1,2.5s-4.5-0.1-5.1,0.6
			s-1.5,2-1,2.8s2.8,1.1,8.3,1.3c3.3,0.1,3.4,0,4.5,0s2.3,0.1,2.3,0.1s3.1,0.3,3.4-1c0.3-1.1-0.2-2.9-0.6-4.1l0,0
			c0.1-0.3,0.1-0.6-0.1-0.8c-0.2-0.3-0.5-4.9-0.2-5.7c0.2-0.6,0.2-1.2,0.1-1.9c-0.6-0.8-1-1.8-1-2.9c0.1-1.5-0.6-3.1-0.2-4.4
			s1.4-1.3,1.7-8s0.8-11.9,1.1-14.1c0.4-3.2,0.5-6.5,0.4-9.7c-0.2-3.1,0.8-7.2,0.9-8.1s0.7-1.7,0.6-2.6c0-0.6,0.1-1.1,0.4-1.6
			c0,0,0.7-0.7,1.2-0.4c0,0,0.3-0.3,0.4,1.9s-0.2,4.7-0.1,6.9s0.2,2.8-0.2,3.6c-0.4,1-0.4,2-0.1,3c0.3,0.9-0.4,1.7-0.5,3
			s-0.1,3.9-0.1,4.8s1.1,2.4,0.9,3c-0.2,0.9-0.3,1.8-0.2,2.7c0.1,1.4-0.4,1.3-0.4,2.7s0.1,3.4,0.1,4.6s0.2,5.7,0.1,6.4
			s-0.3,0.8-0.5,1.7s0.1,2.9-0.3,3.7s-0.5,1.1-0.4,1.4s0.6,0.7,0.2,1.6c-0.6,0.8-0.8,1.8-0.5,2.8c0.2,0.7,0.4,1.1,0.5,1.6
			s0.2,0.6,0.3,1c0.1,0.2,0.1,0.4,0.1,0.6c0.3,0.5,0.5,1.2,0.6,1.8c-0.2,1.6-0.3,3.1-0.3,4.7c0.1,1.9,0.7,1.8,1.5,1.8h11
			c0,0,1.3-1.7-0.2-2.9c-0.9-0.7-2-1.1-3.2-1.1c-0.6-0.4-1.1-0.9-1.4-1.5c0-0.2-0.3-0.4-0.4-0.5l0,0c-0.2-0.7-0.4-1.3-0.5-2
			c0.2-1,0.2-2.1,0.1-3.1c-0.1-0.7,1-0.6,1.2-1.1c0.1-0.7,0.3-1.4,0.5-2c0.8-1.5,1.2-3.1,1.2-4.7c0-2.7-0.4-4-0.4-6.6
			c0.1-2.6-0.1-8.2-0.2-9.3s-0.4-1.2,0-2.2c0.7-1.9,1-4,0.9-6c-0.2-1.5,1.1-2.6,1.3-4.3s1.4-7.6,1.7-9.9s0.9-2.6,1.3-4.3
			c0.2-1.4,0.6-2.7,1.2-4c0.7-1.2,1.2-2.5,1.5-3.9c0-0.4,0-0.7,0-1.1l0.1,0.2c0,0,1.3-3.2,1.5-3.7s0.7-0.4,0.6-0.8s-0.5-0.6-0.5-0.6
			s2-2.7,2.4-3.4c0.2-0.8,0.1-1.7-0.3-2.4c-0.2-0.7-0.1-1.4,0.3-2c0.3-1.3,0.5-2.7,0.5-4.1c0-0.6,0-1.2,0.2-1.8c0,0,1.2-0.7,1.2-1.7
			C45.7,53.2,45.7,52.6,45.6,51.9z M36.6,55.1c-0.4-0.9-0.8-0.8-1.2-1.2s-0.2-0.9-0.1-1.7s0-4.7,0-5.5s-0.2-3.1-0.2-3.7
			s-0.1-2.8,0.5-3c0.3-0.1,0.4,0.1,0.4,0.3c-0.2,0.7-0.6,1.7-0.3,1.9c0,0.1,0,0.2,0,0.2c0.1,0.4,0.1,0.3,0.5,0.9s-0.1,0.9,0,1.6
			s0.3,0.3,0.5,1.4s0.1,1.7,0.2,2.6s0.4,0.4,0.8,1.3s-0.5,0.7-0.8,1.2s0.3,0.3,0.6,1.3s-0.3,3.4-0.7,3.5S37,56,36.6,55.1L36.6,55.1z
			"/>
	</g>
</g>
<g>
	<path class="st1" d="M15.9,35.2c0.4-0.4,0.9-0.7,1.3-1c0.5-0.3,1-0.6,1.6-0.8c0.6-0.2,1.2-0.4,1.8-0.6c0.7-0.1,1.4-0.2,2.1-0.2
		c1,0,2,0.1,2.9,0.4c0.9,0.3,1.6,0.7,2.2,1.2c0.6,0.5,1.1,1.2,1.4,1.9c0.3,0.8,0.5,1.6,0.5,2.5c0,0.9-0.1,1.7-0.4,2.4
		c-0.3,0.7-0.6,1.2-1,1.7c-0.4,0.5-0.8,0.9-1.3,1.3s-0.9,0.7-1.3,1s-0.8,0.6-1.1,0.9c-0.3,0.3-0.5,0.7-0.5,1l-0.4,2.6h-3l-0.3-2.9
		c0-0.1,0-0.1,0-0.2c0,0,0-0.1,0-0.2c0-0.5,0.1-1,0.4-1.4c0.3-0.4,0.6-0.8,1-1.1c0.4-0.3,0.8-0.7,1.3-1c0.5-0.3,0.9-0.7,1.3-1.1
		c0.4-0.4,0.7-0.8,1-1.3c0.3-0.5,0.4-1,0.4-1.7c0-0.4-0.1-0.8-0.2-1.2c-0.2-0.3-0.4-0.6-0.7-0.9c-0.3-0.2-0.6-0.4-1-0.6
		c-0.4-0.1-0.8-0.2-1.3-0.2c-0.7,0-1.3,0.1-1.7,0.2c-0.5,0.1-0.9,0.3-1.2,0.5s-0.6,0.4-0.8,0.5c-0.2,0.2-0.4,0.2-0.6,0.2
		c-0.4,0-0.7-0.2-0.9-0.5L15.9,35.2z M19.3,56.4c0-0.4,0.1-0.7,0.2-1.1c0.1-0.3,0.3-0.6,0.6-0.9c0.2-0.2,0.5-0.4,0.9-0.6
		s0.7-0.2,1.1-0.2c0.4,0,0.7,0.1,1.1,0.2s0.6,0.3,0.9,0.6c0.2,0.2,0.4,0.5,0.6,0.9c0.1,0.3,0.2,0.7,0.2,1.1c0,0.4-0.1,0.7-0.2,1.1
		c-0.1,0.3-0.3,0.6-0.6,0.9c-0.2,0.2-0.5,0.4-0.9,0.6s-0.7,0.2-1.1,0.2c-0.4,0-0.7-0.1-1.1-0.2s-0.6-0.3-0.9-0.6
		c-0.2-0.2-0.4-0.5-0.6-0.9C19.4,57.2,19.3,56.8,19.3,56.4z"/>
</g>
</svg>
