<svg xmlns="http://www.w3.org/2000/svg" width="47.66" height="140.6" viewBox="0 0 47.66 140.6"><defs><style>.cls-1{fill:#1c1c1c;}</style></defs><g id="Layer_2" data-name="Layer 2"><g id="Layer_12" data-name="Layer 12"><path class="cls-1" d="M47.3,49c-.6-.31-.48-.56-.42-1s.11-.7-.19-1a2,2,0,0,1-.66-1.7,2.2,2.2,0,0,0-.48-1.57A52.49,52.49,0,0,0,44,38.41c-1-2.87-3-7.68-3.87-8.55s1-.62.4-1.68-1.19-3.54-2.07-3.91a7.14,7.14,0,0,0-2.17-.43c-.47-.07-6-1.24-7.32-2.11a14.83,14.83,0,0,1-2.72-2.45,3.21,3.21,0,0,1,.09-.52,3,3,0,0,0,.82-.59s-.29.76-.44.79a2.22,2.22,0,0,0,1.63-.69A8.56,8.56,0,0,0,30,13.9a29.75,29.75,0,0,0-.77-8.48c-.66-2.1-2.1-5-4.53-4.69A3.92,3.92,0,0,1,23.44.6,2.6,2.6,0,0,0,21.38,1s-1.81-1.57-3-.82-4.69,1.94-5.7,6.18-.62,6.29-1.13,7.25a2.6,2.6,0,0,0,.09,3c.75.83.34.93.81,1.49,0,0,0-.83.28-.89a2.28,2.28,0,0,0,.59,1.55s.56.67.5.8,1.1-.9.66-1.46c0,0,.66.7.57,1.2,0,0,1.19.33.94-.6,0,0,.34.4.69.79l.39.46c-.33.43-.19.78-1.06,1.28,0,0-1.22.38-2.75.93a19.73,19.73,0,0,1-3.8.93,12.94,12.94,0,0,0-2.82.37,14.87,14.87,0,0,0-1.89,4c0,.56.4.74.22,1.12s-1,1.86-1.25,2.49-.37,2.8-.49,3.43-.6,1.87-.66,2.25-.48.75-.42,1.12a7.1,7.1,0,0,1-.25,1.57,7.12,7.12,0,0,1-.24,1.63,1.87,1.87,0,0,0-.25,1.19c.12.32-.41.44-.3.94s-.24.51-.36.76a1,1,0,0,0,0,1,.81.81,0,0,1-.12,1.07,1.34,1.34,0,0,0-.55,1.51,15.62,15.62,0,0,1,.44,4.23A43.3,43.3,0,0,0,1,56.75a10.22,10.22,0,0,0,.27,2.41c.3.63,0,.38.05,1.39s.23.77.41,1.15a16.06,16.06,0,0,1,.1,2c.12.77.36.64.35,1.15s.28,2.55.28,2.55l.08.18c-.19.37-.31.77-.44,1-.22.4-.67,1.07-.52,1.57S2.81,72.22,3,72.7a4.44,4.44,0,0,0,.63,1C4,74.16,5,75.4,5.28,75.68A12.48,12.48,0,0,0,6.56,77.2h.05a4.42,4.42,0,0,0,.33,1.43c.35.86.25,2.2.78,3.82a13.54,13.54,0,0,1,1,3.54c0,.23,0,.49.07.78a.2.2,0,0,1,0,.07A5.28,5.28,0,0,0,9,88.72a26.13,26.13,0,0,0,.76,2.93c.78,2.5.07,2.89.6,4.14a6.39,6.39,0,0,1,.61,3c0,1.16.52,2,.25,2.41s-.8.78-.8,1.36a3.78,3.78,0,0,0,.06.61,1,1,0,0,0,0,.17,3.73,3.73,0,0,1,.08,1.45,26.22,26.22,0,0,0-.56,5.43c0,2.24-.21,5.26,0,6.73s-.48,5.48-.22,7a13.34,13.34,0,0,0,.36,1.86,5.24,5.24,0,0,0,.28.69.87.87,0,0,0,0,.25.54.54,0,0,0,.19.39,1.05,1.05,0,0,1-.08.34,5.74,5.74,0,0,0-1,2.66c0,1.19.62,1.38.61,2.27a12.93,12.93,0,0,0,.26,1.83l0,0c0,.09.05.16.07.24v0h0c.67,2.48-.92,2.4-.11,5.13.31,1,.58,1,2.37,1,2,0,6,.29,6-.56.05-2.7-.84-3.26-.86-3.95a.71.71,0,0,1,.1-.26h0a2.8,2.8,0,0,0,.28-1.66c-.09-1.48-.8-2.67-.71-3.16a31.09,31.09,0,0,0,.72-3.35c.09-1.08-.89-1.28-.53-3.14s1.09-8.52,1.36-10a43.63,43.63,0,0,0,.63-4.58,5,5,0,0,1,.54-2.43h0a5.53,5.53,0,0,0,.45-1.94l.71-1.07s.62,3.69.8,5,.27,4.58.26,6-.62,5.28-.54,6.06a22.79,22.79,0,0,1,.36,3.83,2.51,2.51,0,0,1-.25.93,1.85,1.85,0,0,0-.49,2c.19.86.71,1.76.56,2.33a9.19,9.19,0,0,0-.54,2.27,16.53,16.53,0,0,0,.15,2.14,4.43,4.43,0,0,0,.12.63c.33,1.3.13,1-.22,2.47s0,2.31.54,2.31l5,0c1.56,0,3,.39,3.12-.61.3-2.88-.82-1.85-.73-4.16a5.45,5.45,0,0,0,.18-.8c.66-.66-.36-2-.28-2.75s.85-.73.74-1.74l0,0a1.68,1.68,0,0,1-.08-.25c-.06-.28-.11-.53-.14-.75a7.51,7.51,0,0,1,0-1.22,10.12,10.12,0,0,0,.9-2.79c.26-1.67.42-8.42.42-10.38s.44-2.24.44-3.8.52-6.4.51-7.76-.09-1.07-.1-2.81-.45-2.89,0-4a4.3,4.3,0,0,0,.26-2.12l.53-2.79.87-3.93s3-6.54,4-9.78a.27.27,0,0,0,.09,0,5.55,5.55,0,0,0,1.29-.73c.09-.06.2.19.71.13A1.9,1.9,0,0,0,41,77a15.16,15.16,0,0,0,1.54-2.21,7.9,7.9,0,0,0,.25-1.65,2.22,2.22,0,0,0,1,.2s.65,0,.64-1.35a10.67,10.67,0,0,1,.46-3c.11-.39,1.38-5.81,1.55-7.08a13.51,13.51,0,0,0,.45-3,16.84,16.84,0,0,1,.15-4.24,7.43,7.43,0,0,0,.33-2.22,13.47,13.47,0,0,1,.17-1.83C47.6,50.11,47.89,49.35,47.3,49ZM6.83,53.69s.47,1.22.59.5C7.23,58.17,6.83,53.69,6.83,53.69Zm31.3,7.44c-.13-1-1.08-1.49-1.84-3.47s-.81-5.62-.54-8.73a36.81,36.81,0,0,1,.88-5.54c-.12.54,1,1,1.38,1.51s-.11,1.38.6,2.1a2.38,2.38,0,0,1,.83,1.42c.24.68-.5,1.1-.42,1.81s.51.47.52.84a12.8,12.8,0,0,1-.15,1.31,1.7,1.7,0,0,1,.31.88,6.19,6.19,0,0,0,0,1.73,3.23,3.23,0,0,1-.06,1.95,2.65,2.65,0,0,0-.08.29v0c-.11.48,0,.56.09,1.2s.2.63.25,1.18-.59.72-.31,1.49-.19,1.27-.19,2.16.24.38.36,1.2c0,.12,0,.88,0,.88l-.4-.85a2.84,2.84,0,0,1-.83-.68A10.33,10.33,0,0,1,38.13,61.13Z"/></g></g></svg>