<svg xmlns="http://www.w3.org/2000/svg" width="45.51" height="146.29" viewBox="0 0 45.51 146.29"><defs><style>.cls-1{fill:#1c1c1c;}</style></defs><g id="Layer_2" data-name="Layer 2"><g id="Layer_6" data-name="Layer 6"><path class="cls-1" d="M45.41,58.78c-.37.21-.95-.53-.95-.53s-.08.49,0-1,0-4.47.09-6.35a75.73,75.73,0,0,0-.66-10.44c-.61-4.87-1.19-9-1.88-10.8s-1.88-2.75-4-3.85v-.08c-1-.61-6.92-3.23-7.78-3.64-.33-.13-.29.12-.29.12v0h0v0l-.57-.33c-.45-.49-.82-2.45-1.1-2.9a2.46,2.46,0,0,0-.85-.73v.12a9.12,9.12,0,0,1,.18-2.91,13.76,13.76,0,0,0,1-2.54c.37.29,1.07-.16,1.44-.7a3.26,3.26,0,0,0,.69-2.53c-.2-1.19-.9-1.27-.9-1.27a6.27,6.27,0,0,0-.33-2.87A7.24,7.24,0,0,0,28,2.67,5.23,5.23,0,0,0,25.84,1,8.58,8.58,0,0,0,23.71.25,10.72,10.72,0,0,0,20.89,0a3.58,3.58,0,0,0-2.78,1.51,16.59,16.59,0,0,0-2.5,3.07c-1.35,2.13,0,4.83,0,6-.57.49,0,1.92.16,2.9s.74.74,1,.49a17.42,17.42,0,0,0,1.31,2.91,16,16,0,0,1,.05,2.74,1.19,1.19,0,0,1,0-.15c-.37,0-.35.64-.43,1.3A9.32,9.32,0,0,1,17.17,23v0h0v0s-2.34,1.27-3.89,1.88a28.79,28.79,0,0,0-4.67,2.42l0,.26-.07,0a3.32,3.32,0,0,0-.86.47c-.07.07-.1.12-.1.17a6.74,6.74,0,0,0-1.82,2.21c-1.23,2.17-.94,3.76-1.23,6.34s-1.8,10.64-2.5,14.7A56.65,56.65,0,0,0,1.41,61c0,.62.28.16-.21.45S.63,62.1.26,62,0,62.34.14,63.45A3.77,3.77,0,0,0,1,65.66c.57.73.61,1.22.94,1.06,0,0,0,0,.07,0h0c-.06.82,0,1.74-.15,2.49s-.21,1.39-.29,2A3.6,3.6,0,0,0,2,73a22.46,22.46,0,0,0,1.37,3,8.11,8.11,0,0,0,.06.83c.33,1.06.9,1.72,1.15,2.54a22.81,22.81,0,0,1,.82,4.09c.08,1.31.33,5.32.33,10.32s-.25,15.3-.09,17.43.74,4,.58,5.49-1.07,3.52-.9,5.4,1,3.76,1.06,5.24a12.1,12.1,0,0,1-.9,4.58,4.85,4.85,0,0,0-.57,3.36c.16,2.13.65,3.68.73,4.5,0,.45,0,.71.14.75A3.93,3.93,0,0,1,4.19,142c-.9.33-2.17.49-2.21,2.21-.16.25-.45.61.08,1,1.39.09,4.22.62,6.47.62s3-.13,3-.49a2.19,2.19,0,0,0,.65.2,13.87,13.87,0,0,0,1.68-.2c.45-.13.49-.41.41-.82a8.24,8.24,0,0,0-.23-2.08,4.79,4.79,0,0,0,.31-.87c.41-1.15,1.55-3,1.88-4a2.86,2.86,0,0,0-.24-2.7,4,4,0,0,1-.58-2.7c0-1.31-.08-3.93,0-5.73s.17-5.57.25-8,.33-5.4.57-7.53.25-6.3.74-7.85.82-3.44,1.15-5,.08-2.78.57-4.66a23.55,23.55,0,0,0,.47-3.82c.11-.49.28-1.23.43-1.79,0-.14.08-.31.11-.46a7.31,7.31,0,0,0,.46-2.2c.07-1.31.45-2.82.89-2.63l0,0s0,0,0,0c.56.53,1,3.94,1,3.94v-.13c.28,1.85.54,4.1.76,6.06.41,3.52-.08,11.38.58,14.33s.69,7.17.94,9.55.2,8.87.28,11.49-.73,5.81-.57,7.69.82,3.52.9,4.59a14.73,14.73,0,0,1,0,2h.17a2.13,2.13,0,0,0-.41,1.71c0,.33,0,.82.2,1a26.46,26.46,0,0,0,3.44.69l2.33-.41a4,4,0,0,0,.41.7c.29.41,1,.53,3.64.49a53.46,53.46,0,0,0,7.17-.66c1.06-.2,1.39-.77,1.14-1.18s-.2-.95-.69-1.4a3.05,3.05,0,0,0-2.21-.57,4.65,4.65,0,0,1-4.74-2.11s0-.12-.23-.35a2.26,2.26,0,0,1-.16-.26c-.18-1.69.78-1.7.54-2.83a22.51,22.51,0,0,0-.73-3.64c-.41-.9.06-3.58.14-5.38s-.29-7.42-.12-10.45-.41-7.85-.17-10.23S35.5,97,36,91.65s.13-7.72,1.72-11.46c.5-1.17,1.46-2.49,1.41-4.17l0,.13s.33-.75,1-2.55a11.71,11.71,0,0,0,1-3.52,17.36,17.36,0,0,1,.65-3.89c.27-.92.53-1.84.68-2.44h.08a.81.81,0,0,0,.31,0c.31,0,.33-.06.65-.34a2.62,2.62,0,0,0,1.19-1.64C45,60.62,45.78,58.58,45.41,58.78ZM8.2,62a4.1,4.1,0,0,1,0-1.18c.17-.78.66-4.18.74-5s-.25-.9,0-1.84.66-.65.66-1.72.53-1.22.28-1.88l0-.07a1.88,1.88,0,0,1,0-.28,3.36,3.36,0,0,1,.39,1.13,7,7,0,0,1-.16,1.63c-.05.62.12,1-.09,1.52A6.32,6.32,0,0,0,9.31,56c-.21.9-.9,5.19-.94,6a10.2,10.2,0,0,1-.32,1.65C8.13,62.94,8.18,62.18,8.2,62ZM5.63,70.83a2.38,2.38,0,0,1-.37-1.16,17.67,17.67,0,0,1,.45-3.32l0,.33A3.43,3.43,0,0,0,7,66.55a.17.17,0,0,0,.09-.06.53.53,0,0,0,.1-.06c.45-.36.33-1,.57-1.47a1.79,1.79,0,0,0,.14-.51,3.48,3.48,0,0,0,.8.29,1.08,1.08,0,0,0-.08.3,4,4,0,0,1-.07.47,12.41,12.41,0,0,1-1.24,3.3A17.75,17.75,0,0,1,5.63,70.83Zm29.79-4a2.24,2.24,0,0,0-.12-.63h0v0c-.1-.31-.23-.61-.3-.77.57-.06,1.12-.11,1.33-.38s0-1.8-.2-3.39-.29-4.63-.5-6.88,0-2.74-.2-3.52a2.28,2.28,0,0,1,0-1.72,6.64,6.64,0,0,0,.57-3c0-.24,0-.56,0-.91a2.31,2.31,0,0,1,.1.28c.1.67.17.82.22,1.29s.06.87.07,1.31c0,.23,0,.47,0,.71v.31s0,0,0,0q0,.39,0,.78a11.65,11.65,0,0,0,.49,3.44,6,6,0,0,1,.21,2.49c0,.5.16,1.23,0,1.52s-.58,0-.58,0a9.35,9.35,0,0,0,.17,1.31l.32,2c.13.74.09,1.48.17,1.84a.67.67,0,0,0,.06.12c0,.24.64.65.64.65s0-.16-.05-.44h0a26.08,26.08,0,0,1,.2,4.42,4.28,4.28,0,0,1-1,2.17l-.54.55.07.11L36.16,70A4.65,4.65,0,0,1,35.42,66.84Z"/></g></g></svg>