<svg xmlns="http://www.w3.org/2000/svg" width="46.47" height="146.51" viewBox="0 0 46.47 146.51"><defs><style>.cls-1{fill:#1c1c1c;}</style></defs><g id="Layer_2" data-name="Layer 2"><g id="Layer_8" data-name="Layer 8"><path class="cls-1" d="M45.68,143.22c-1.2-2.34-5.57-.23-7.24-4.21-.42-1-.57-2-1.47-2.77a1.77,1.77,0,0,1,.23,0,.53.53,0,0,1,.13-.45c.49-.49,1.84-.3,1.23-1.16A8,8,0,0,0,36.91,133c-.8-.74.36-2,.3-3.86s1.41-12.49,1-14.14a20.31,20.31,0,0,1-.24-4.77,32.77,32.77,0,0,1,.18-3.92c.12-2.33.67-3.86.86-5.82s.73-10.34.61-13.89c-.07-2,0-3.8.07-5.25a10.17,10.17,0,0,0,.68-2.93,21.54,21.54,0,0,1,1.87-5.27c.53-.93.93-6.13,1.4-8.33a47.78,47.78,0,0,0,.26-13,84.66,84.66,0,0,1-.75-9.11,5.94,5.94,0,0,0,1.63-1s-2.2-7-2.8-9.07-.42-4.32-4.4-6-7.46-3.05-7.46-3.05H30c-.46-.08-2.38-.59-2.18-3.5.23-3.29.68-4.49.68-5.11s1.31-1.82,1.25-2.79a30.2,30.2,0,0,0-.11-4.09l-.23-.8S28.22-.49,22.47,0,15.94,5.26,16,7.53a27,27,0,0,1,0,2.79,3.07,3.07,0,0,0-.11,2.1A11.5,11.5,0,0,0,17.13,15a2.35,2.35,0,0,0,.85.28s.17,2.38,1,3.24c0,0,.79,3.3.11,3.92a14.71,14.71,0,0,1-1.89,1.8c-.49.14-1,.3-1.46.49l-.21.09h-.08v0c-.5.23-1.58.72-2.77,1.22a23.63,23.63,0,0,0-5.85,4.07C6.28,31,4.92,37.06,4.5,39s-.68,5.17-1.1,5.76a3.62,3.62,0,0,0,1.31,1.15c0,.79.07,6.4-.45,8A50,50,0,0,0,3,66.69a58,58,0,0,1-.34,7.85,10.56,10.56,0,0,1,0,2.76c-.22,1.21-.79,5.62-.56,6.19s.49,1.21.71,2,.23,1.78.61,2.15a25.27,25.27,0,0,1,2.15,2.83c.08.27,1.28,0,.94-.9l.24.64c.2,2.2.65,7,1.07,8.89a20.19,20.19,0,0,1,.24,6.25h0a9,9,0,0,0,0,2.26,11.83,11.83,0,0,1,0,2.44c-.18.8-.67.8-.73,2.14s-.06,3.31-.18,3.86-.37.79-.13,1.47-.85,10-.55,11.88c.27,1.6,1,2.64,1.12,3.41a2.45,2.45,0,0,0-.15.7c-.12.24-.22.1-.17.84.06,1,.12,1.29.18,2a.5.5,0,0,1-.07.3s.12,3.3-1.47,4.89-5,.18-5.74,1.89S.6,146,1.83,146.23s16.28,0,16.28,0a25.47,25.47,0,0,0-1.37-6.69,5.57,5.57,0,0,0,1.25-3c0-1.53.67-3.19.18-4.53a7.25,7.25,0,0,1-.3-4.1c.3-1.29,0-1.84.06-4.35s.49-9,.24-10.16-.79-2.94-.79-2.94a4.14,4.14,0,0,0,.55-2.76c-.19-1.77,1.16-8.32,1.77-11.14s1.17-4.1,1.6-5.69.67-1,.73-2.76.73-1.77.73-1.77.86.06,1.17,2,1.47,5.33,1.9,7.35,1.34,6.79,1.71,8.81-.25,2.94.61,4.1,2.33.68,1.59,2.14-1.59,1.29-1,3.13.19,2.63.37,4.1-1.35,6.49-1.65,8.45-.8,2.38-.12,4.16.91,1.59,1.1,2.94-.55,1.77.3,2.57.19,1,.62,2.14c.07.21.15.38.22.54a32.52,32.52,0,0,0-.47,6.23c.25,1.72,1.84,1.47,3.8,1.47H45.29S47.66,147.05,45.68,143.22ZM7.22,74.76c-.12.43-.22.73-.31,1a9.7,9.7,0,0,1,0-3.44c.15-1.16.86-4.58,1.6-7.33a1.72,1.72,0,0,0,.07.21c.34.76,1.18,1.78.67,2.11a4,4,0,0,0-1.18,2.21c-.17.85-.51,2-.51,2.37a.38.38,0,0,0,.1.21A24,24,0,0,1,7.22,74.76Zm3-22.29a43.4,43.4,0,0,1,.57-5.84h.19a38.89,38.89,0,0,0-.09,4.92c.17,1.78.43,3.31,0,4.07s-.16,2.37-.25,3.3c-.07.73-.65.9-1.1,1.5.22-1.29.39-2.55.53-3.73A21,21,0,0,0,10.18,52.47ZM8.9,63.38s0,.09,0,.12a1.08,1.08,0,0,1-.15.47C8.81,63.77,8.86,63.58,8.9,63.38Zm29.92,6.15a6.62,6.62,0,0,1-1,2c0-.64.13-1.69.13-2.1a13.09,13.09,0,0,0-1.19-3.56c-.59-1.27.94-2.2.77-3.3S35.69,60.7,36,56.72c.32-3.79,1-11.16,1.09-12.39,0,.7.25,4.37.43,5.4s.6,7.8.87,11.26S39.15,68.79,38.82,69.53ZM10,46.6c-.67,0-1.69,0-2.73-.15C8.26,46.52,9.28,46.57,10,46.6Zm32.77-3.7a25.77,25.77,0,0,1-5.63,1.3v0A28.9,28.9,0,0,0,42.76,42.9ZM5.28,85.11a3,3,0,0,1,.38-2c.22-.3.39-.53.76-.41-.06,1.12,0,2.6.06,3.85C6,86.09,5.4,85.59,5.28,85.11Z"/></g></g></svg>