<svg xmlns="http://www.w3.org/2000/svg" width="47.13" height="145.98" viewBox="0 0 47.13 145.98"><defs><style>.cls-1{fill:#1c1c1c;}</style></defs><g id="Layer_2" data-name="Layer 2"><g id="Layer_2-2" data-name="Layer 2"><path class="cls-1" d="M47,50.22c-.38-1.31-.55-2-.55-2s-.17-3.78-.38-5.4-.89-4-1.11-6.5-.21-5.22-.89-7.47-.85-4.38-1.78-4.89a31.72,31.72,0,0,0-5.78-2c-1.53-.3-4.93-.81-5.44-1a3.45,3.45,0,0,1-2.16-1.23A2.22,2.22,0,0,0,28,19l0-.07a10.1,10.1,0,0,1-.1-2.49c.16-.82,1.28-1.75,1.23-2.83l-.05-1.07s.62.15.72-.82.62-2.52.2-3.54-.92-.93-.92-.93a6.06,6.06,0,0,0-.41-3.07A7,7,0,0,0,22,0c-3.9,0-6.57,3.18-6.57,5.44s-.1,1.95-.1,1.95-1.38-.1-1.43.92a5.7,5.7,0,0,0,.25,2.15c.16.52,0,1.29.41,1.65s.72.92,1.13.77a6.42,6.42,0,0,0,1.9,4.31c-.05.7-.09,1.27-.12,1.77a1.64,1.64,0,0,0-.3.94,9,9,0,0,1-1.7,1.35c-1.1.68-4.42,1.45-7.22,2.72s-4.08,1.78-4.16,2.55-1.7,6.45-2,9.17a39.89,39.89,0,0,1-.85,5.61C.86,43.43,1.28,44.19,1,45a12.53,12.53,0,0,0-.68,4.41c.17,1.45-.43,2.38-.34,3.57a23.58,23.58,0,0,0,.85,6.12,6.24,6.24,0,0,1,.3,2.25,3.13,3.13,0,0,0,1.23,2.46c.51.51.34,1.07.17,2s-.26,1.83.21,2.3,0,1.06.34,1.74S4,71.46,4.47,72.23s1.91,3.44,1.91,3.44l1.1-.89L8,75.5s.13,3.78.6,9.47.29,11.34.93,13.6,1,2.84,1.19,4-.17,3.52,0,4.71.21,1.66-.38,2-1.19.68-.73,2,.68,1.53.6,2-.72,1.1-.43,2.25.94,1.27,1,3.31.17,2.89.3,4.76a14.51,14.51,0,0,0,.55,4c.34.77.51.77.25,1.32s0,.56-.26,1.77a13.15,13.15,0,0,0-.67,3.11c-.08.56-.34.9,0,1.41s1.15,2.29,1.62,3a7.67,7.67,0,0,1,.75,2.07c0,.1.07.18.1.26l.2-.1.09.15s.42.34-.6,1.32-3.26.38-3,1.57l.21,1.19s-.55,1.06.77,1.06,8.62.26,9,.17,1.95.47,2.42-.46-.09-4.4-.18-5.27l-.12,0c0-.7,1.15-3.33,1.15-4S22,134,22.31,133.36s1.06-1,1.11-2.17-.17-10.7-.51-12.28-.43-5.26-.77-5.82a2.75,2.75,0,0,1-.3-1.36,5.42,5.42,0,0,0,.09-2.16c-.26-.64-.81-1.11-.68-1.57a3.49,3.49,0,0,1,.47-.94v-2.42A19.55,19.55,0,0,0,23,98.52c.08-3.31.76-9,.85-9.64a.59.59,0,0,1,0-.13l.21-.54c.09-.09.17,0,.19.16.05.42.3,3.27.34,4.21a49.05,49.05,0,0,0,.64,5c.3,1.53.42,4.84.85,5.9s.34,1.91.64,2.3-.09,1.65,0,2.29a2.1,2.1,0,0,1-.17,1.23,10,10,0,0,0-.3,2.38c0,1.06.13,3.7,0,5.61s-.13,8.92-.21,10.66a17.91,17.91,0,0,1-.6,3.87,21.69,21.69,0,0,0-.46,3.65,8,8,0,0,0,.93,2.68c.34.72.47,1.1.3,1.48a3.78,3.78,0,0,0-.1.38h0a1.2,1.2,0,0,0,0,.86s-.27,4.56.11,4.86,1.39.12,1.7.12c.64,0,.94,0,1.82,0h4.82c1.9,0,4.36.29,4.23-.62,0-.22-.29-.14-.08-.71.7-2-3.51-1.47-4-3.42a2.41,2.41,0,0,0-.21-.67,4.24,4.24,0,0,1,0-.43l.07,0c.07,0,.13-.27.16-.35s.56-1.4.56-1.4a17.15,17.15,0,0,0,1.44-3.19c.13-.85.68-1.23.6-1.66s-.81-2.63-.94-3.48-.17-1.91-.17-1.91.17-.77.34-1.45.6-6,.6-7.56a26.51,26.51,0,0,1,.55-4,7.62,7.62,0,0,0-.13-2.29,4.11,4.11,0,0,1,.26-1.15s.72-2.12-.17-3.1a2.46,2.46,0,0,1-.77-2.3c.09-.63-.08-3.44.17-4.71a42.31,42.31,0,0,0,1-6.59c.13-2.67.21-9.85.26-10.57s1-2,1.06-2.59-.55-3.7-.21-4.93a13.93,13.93,0,0,1,.8-2.17S41.6,72.36,41.77,72s1.82-3.06,1.82-3.06.34-2.63.47-3.82a11.79,11.79,0,0,0,.13-2.68,3.52,3.52,0,0,0,1.44-2.54c.22-1,.64-3.28.94-4.38S47.37,51.54,47,50.22Z"/></g></g></svg>