<svg xmlns="http://www.w3.org/2000/svg" width="50.45" height="144.05" viewBox="0 0 50.45 144.05"><defs><style>.cls-1{fill:#1c1c1c;}</style></defs><g id="Layer_2" data-name="Layer 2"><g id="Layer_4" data-name="Layer 4"><path class="cls-1" d="M50.31,37.69c-.17-2.74.6-6.24-.34-7.44a10.68,10.68,0,0,0-3.85-2.74A25.69,25.69,0,0,1,42.87,26c-1-.51-2-1.45-2.91-1.88s-1.11-2-1.11-2A5,5,0,0,0,38,20.3a7.18,7.18,0,0,1,.49-1.85,10.18,10.18,0,0,0,.86-2.38,1.55,1.55,0,0,0,1.32-.7,9.74,9.74,0,0,0,1.15-2.6c.1-.61.74-2.44-.32-2.53a9.28,9.28,0,0,0,.36-3.56A7.71,7.71,0,0,0,33.52,0,4.09,4.09,0,0,0,29.6,2a3.21,3.21,0,0,0-2.82,1.67A18.71,18.71,0,0,0,26,9.85c.09.87-.8,1.12-.64,2.28s.39,1.09.32,2,.12.86.48,1.34a10.81,10.81,0,0,1,.67,1c.19.32.48,2.31,1.29,3.07,0,0-.05.69-.12,1.48a5.57,5.57,0,0,0-1.41,1.57c-.6,1.11.51.26-1.8.86s-2.22-.26-5.22.68-4.27,1.37-5.3,3.85a35,35,0,0,0-2.05,5.39c-.34,1.54-.77,1.54-1.46,2.82A24.81,24.81,0,0,0,8.57,40.6c-.36,1.1-.38,1.46-.06,1.68l.06.12A17.72,17.72,0,0,0,8,46.22c-.07,2.48,0,2.55.77,3s2.14.14,2.63.28,2.83,1.58,4.41,1.61h.36c0,.16-.05.31-.07.47-.43,2.83.26,8-.94,13.86s-.68,7.7-.6,9.15.6,1.63,1.8,2.48A8.52,8.52,0,0,0,14.75,80c-.12,1.09-1.15,6.86-1,10.91s-.32,11.29-.51,13.59-1.22,4.3-1.22,6,.19,3,.26,4.49a41.77,41.77,0,0,1-.52,4.75c-.13,1.54-2.11,5.39-2.05,7.12a20.8,20.8,0,0,0,.39,3.72,5,5,0,0,0,.51,1.86c.26.32,0,1,.26,1.28a2.19,2.19,0,0,0,.71.3c-.31.6-.91,1.78-1.1,2s-.9,1.67-5.2,2.76S0,140.14,0,142s1.28,2.05,3.91,2.05h10a5.83,5.83,0,0,1,3.46-.06H22.2a13.11,13.11,0,0,0,.57-3.66,38.7,38.7,0,0,0-1-5.33l-.13-.55c.13,0,.26-.09.38-.15a12.5,12.5,0,0,0,0-3.21c-.25-1,0-5.19.2-8.85s3-17,3.46-20.46a48.7,48.7,0,0,1,1.41-6.68c.64-2.82,1.35-5.51,2-6.22s1.09-.7,1.09-.7.71,2.18,1.28,4.29,1.74,10.2,2.12,11.62-.19,6.15-.19,6.15a7.42,7.42,0,0,0-.26,2.83c.07,2.11.07,5.32.07,5.32s-.52,3.34-.58,5.07-1.41,9.88-1.29,10.84a14.76,14.76,0,0,0,.39,1.86s.31.14.82.34a16,16,0,0,1-1.33,3.89,4.53,4.53,0,0,0-.65,3.66h12a5.23,5.23,0,0,0-1.15-3.85c-1.48-1.73.19-2.56.06-3s-.22-.72-.25-.8a2.13,2.13,0,0,0,1-2.8,94.24,94.24,0,0,0,1.09-10c-.06-2.63.38-10,.38-12s.13-5.26.13-5.26,1.8-10.71,1.61-13.79a36.8,36.8,0,0,1,.13-5.9l-.2-6.1s-.27-5.77-.17-6.16c0,0,1.11-1,1.2-1.54s1.37-6.5,1.28-8-.08-7.44-.17-9.32a12.32,12.32,0,0,1,.43-3.59s2.65-.34,2.39-1.54S50.49,40.43,50.31,37.69Z"/></g></g></svg>