<svg xmlns="http://www.w3.org/2000/svg" width="35.48" height="133.33" viewBox="0 0 35.48 133.33"><defs><style>.cls-1{fill:#1c1c1c;}</style></defs><g id="Layer_2" data-name="Layer 2"><g id="Layer_10" data-name="Layer 10"><path class="cls-1" d="M35.41,37.48a23,23,0,0,1,0-2.81,13.1,13.1,0,0,0-.31-2.8,18.08,18.08,0,0,1,0-2.63c-.07-1-1.18-3.84-2.59-4.54a21.56,21.56,0,0,0-3-1.15,4.92,4.92,0,0,1-1.5-2.2C27.67,19.9,26.42,14,26,11s-1.29-7-4-8.92S19.79-.07,17.84,0s-2.07.46-2.07.46a3.82,3.82,0,0,0-2,.3c-1,.47-3.53,2.14-4.27,6.75s-1.37,6.7-1.62,7.85S7.27,17.94,7,18.79s-.7,1.37-.62,2.14-.33.93-.91,1.62a5,5,0,0,1-.71.66C2.49,24.32,1.26,26.34.84,31.12c-.33,3.8.07,5.07-.26,8.74C.3,42.92.1,46.32,0,48.37a12.35,12.35,0,0,0,.66,5.12c.5,1,0,1,.33,1.45A10.93,10.93,0,0,1,2.5,57.75,3.61,3.61,0,0,0,2.92,59a9.58,9.58,0,0,1-.25,4.18s-.25,4-.83,4.61-.17,1.11.91,1.88a3.42,3.42,0,0,0,1.11.6,10,10,0,0,0-.15,2.85c.24,3,1,4.78,2.19,10s1.66,8,1.74,10.76.25,2.9.29,3.07.05.13-.08.6,0,.38.13.76a.87.87,0,0,1-.05.94c-.2.39-.58.64-.29.9s.38.26.34.77-.42.51-.21.85.25.34.21,1a61.4,61.4,0,0,0,1.24,9.9c.95,4.7,1.2,5.17,1.45,5.72a2.48,2.48,0,0,1,.41,1.45c.05.94-.16.56-.16.86s-.25.08-.25.08l.75,2.61s.58.46.87.46.38.25.51.4.11.12.15.12.21.42.33,1.36a8.07,8.07,0,0,1-.08,1.92c0,.34-1.49,1.24-1.58,1.84a.69.69,0,0,0,.29.68,11.64,11.64,0,0,0-3.39,1.42s-1.28,1.75,0,1.75H18.65a3.45,3.45,0,0,0,0-2.36,7,7,0,0,0,.29-2.18,9,9,0,0,0-.25-1.92,8.41,8.41,0,0,1-.45-1.58c-.05-.68,0-.93-.05-1.53a1,1,0,0,0-.29-.64l.37-.2c.1-.15.11-1,.21-1.21a9.25,9.25,0,0,0,.13-3.12A6.15,6.15,0,0,0,18,118a35.79,35.79,0,0,1-.38-4.14c.05-1.24-.08-7.38-.49-8.66a9.57,9.57,0,0,1-.42-3.24c0-.56.37-1.12.46-1.67s-.17-1.07,0-1.66a6.39,6.39,0,0,0,.29-1.58c0-.17.08-3.63,0-4.61a28.23,28.23,0,0,1-.21-4.1c.08-.77.17-1.58.25-2.64s0-3.46.08-4.19.25-4,.5-4,.58,0,.66.69.67,4.13.91,5A30.17,30.17,0,0,1,20.12,87a21.19,21.19,0,0,0,.13,2.6c.2,1.32-.05,5.63.33,6.79s.7,1.32.58,1.79,0,.64.29,1.24.45.38.41,1.36,0,3.12-.08,6.62a24.87,24.87,0,0,0,.5,6,27.22,27.22,0,0,1-.05,3.55c0,1.62.13,1.75.05,2.13s-.42.47-.46.6-.29,2.47,0,2.86l1,1.26a7.91,7.91,0,0,1-.29,1.3c-.21.55-.42.55-.46,1.11s-.29.55-.29.55-1.87.77-1.7,1.28a.82.82,0,0,0,1.33.26s-.13,1.88-.34,3.07a9.93,9.93,0,0,1-.43,1.52h0a1.53,1.53,0,0,0-.07.4h8s.78-1.4.09-2a1.78,1.78,0,0,0-.72-.29,2.59,2.59,0,0,1,0-.56,20.77,20.77,0,0,0,.17-2.9c-.08-.77-.54-.85-.5-1.54a9,9,0,0,1,.13-1.15,3.5,3.5,0,0,0-.16-1.24l.34-.09c.21-.22.5-.87.6-.93a4.47,4.47,0,0,0,.67-2.48c-.05-1-.42-1.19-.42-1.19s.75-5.25,1.25-8,.49-2.69.37-6.66-.25-4-.17-4.74a4.17,4.17,0,0,0-.08-1.49c-.08-.6.41-1.07.12-1.36S30,95.26,30,95.14s0-3.08.08-5.68.54-7.47.66-8.88a25.4,25.4,0,0,1,.59-4.13c.28-1,.28,0,.41-1.75s.33-4.61.33-5.21a3.21,3.21,0,0,0-.13-.7l.05.06c.58.77.5-.26,1.16,0s1.16.08.83-.94-1.74-7.68-1.33-10.33c0,0,.75-2,1.08-2.9a14,14,0,0,1,.58-1.79,5,5,0,0,0,.33-2c0-.6.08-.26.33-1.19a9.34,9.34,0,0,0,.22-2c0-1.23.13-8.62.13-9S35.61,38.11,35.41,37.48Z"/></g></g></svg>