<?xml version="1.0" encoding="utf-8"?>
<!-- Generator: Adobe Illustrator 25.4.1, SVG Export Plug-In . SVG Version: 6.00 Build 0)  -->
<svg version="1.1" id="Layer_1" xmlns="http://www.w3.org/2000/svg" xmlns:xlink="http://www.w3.org/1999/xlink" x="0px" y="0px"
	 viewBox="0 0 45.5 146.3" style="enable-background:new 0 0 45.5 146.3;" xml:space="preserve">
<style type="text/css">
	.st0{fill:#1C1C1C;}
	.st1{fill:#FFFFFF;}
</style>
<g id="Layer_2_00000079462456794325213770000006946299863469958066_">
	<g id="Layer_6">
		<path class="st0" d="M45.4,58.8c-0.4,0.2-1-0.5-1-0.5s-0.1,0.5,0-1s0-4.5,0.1-6.3c0-3.5-0.2-7-0.7-10.4c-0.6-4.9-1.2-9-1.9-10.8
			s-1.9-2.8-4-3.9v-0.1c-1-0.6-6.9-3.2-7.8-3.6c-0.3-0.1-0.3,0.1-0.3,0.1l0,0l0,0l0,0l-0.6-0.3c-0.5-0.5-0.8-2.5-1.1-2.9
			c-0.2-0.3-0.5-0.6-0.9-0.7v0.1c-0.1-1,0-2,0.2-2.9c0.4-0.8,0.8-1.7,1-2.5c0.4,0.3,1.1-0.2,1.4-0.7c0.6-0.7,0.8-1.6,0.7-2.5
			c-0.2-1.2-0.9-1.3-0.9-1.3c0.1-1,0-2-0.3-2.9c-0.3-1.1-0.8-2-1.5-2.9c-0.6-0.7-1.3-1.3-2.2-1.7c-0.7-0.3-1.4-0.6-2.1-0.8
			C22.8,0,21.8,0,20.9,0c-1.1,0-2.1,0.6-2.8,1.5c-1,0.9-1.8,2-2.5,3.1c-1.4,2.1,0,4.8,0,6c-0.6,0.5,0,1.9,0.2,2.9s0.7,0.7,1,0.5
			c0.3,1,0.8,2,1.3,2.9c0.1,0.9,0.1,1.8,0,2.7c0,0,0-0.1,0-0.1c-0.4,0-0.4,0.6-0.4,1.3c-0.1,0.8-0.3,1.5-0.5,2.2l0,0l0,0l0,0
			c0,0-2.3,1.3-3.9,1.9c-1.6,0.7-3.2,1.5-4.7,2.4v0.3H8.5c-0.3,0.1-0.6,0.3-0.9,0.5c-0.1,0.1-0.1,0.1-0.1,0.2
			c-0.8,0.6-1.4,1.4-1.8,2.2c-1.2,2.2-0.9,3.8-1.2,6.3S2.7,47.4,2,51.5c-0.5,3.2-0.7,6.4-0.6,9.5c0,0.6,0.3,0.2-0.2,0.5
			S0.6,62.1,0.3,62S0,62.3,0.1,63.5c0,0.8,0.3,1.6,0.9,2.2c0.6,0.7,0.6,1.2,0.9,1.1c0,0,0,0,0.1,0l0,0c-0.1,0.8,0,1.7-0.1,2.5
			s-0.2,1.4-0.3,2c0,0.6,0.1,1.2,0.4,1.8c0.4,1,0.8,2,1.4,3c0,0.3,0,0.6,0.1,0.8c0.3,1.1,0.9,1.7,1.2,2.5c0.4,1.3,0.7,2.7,0.8,4.1
			c0.1,1.3,0.3,5.3,0.3,10.3s-0.2,15.3-0.1,17.4s0.7,4,0.6,5.5s-1.1,3.5-0.9,5.4s1,3.8,1.1,5.2c0,1.6-0.3,3.1-0.9,4.6
			c-0.6,1-0.8,2.2-0.6,3.4c0.2,2.1,0.7,3.7,0.7,4.5c0,0.4,0,0.7,0.1,0.8c-0.4,0.6-0.9,1.1-1.6,1.5c-0.9,0.3-2.2,0.5-2.2,2.2
			c-0.2,0.2-0.5,0.6,0.1,1c1.4,0.1,4.2,0.6,6.5,0.6s3-0.1,3-0.5c0.2,0.1,0.4,0.2,0.6,0.2c0.6,0,1.1-0.1,1.7-0.2
			c0.4-0.1,0.5-0.4,0.4-0.8c0-0.7-0.1-1.4-0.2-2.1c0.1-0.3,0.2-0.6,0.3-0.9c0.4-1.1,1.6-3,1.9-4c0.4-0.9,0.3-1.9-0.2-2.7
			c-0.5-0.8-0.7-1.8-0.6-2.7c0-1.3-0.1-3.9,0-5.7s0.2-5.6,0.2-8s0.3-5.4,0.6-7.5s0.2-6.3,0.7-7.8s0.8-3.4,1.1-5s0.1-2.8,0.6-4.7
			c0.3-1.3,0.4-2.5,0.5-3.8c0.1-0.5,0.3-1.2,0.4-1.8c0-0.1,0.1-0.3,0.1-0.5c0.3-0.7,0.4-1.4,0.5-2.2c0.1-1.3,0.5-2.8,0.9-2.6l0,0
			l0,0c0.6,0.5,1,3.9,1,3.9v-0.1c0.3,1.8,0.5,4.1,0.8,6.1c0.4,3.5-0.1,11.4,0.6,14.3s0.7,7.2,0.9,9.6s0.2,8.9,0.3,11.5
			s-0.7,5.8-0.6,7.7s0.8,3.5,0.9,4.6c0,0.7,0,1.3,0,2h0.2c-0.4,0.5-0.5,1.1-0.4,1.7c0,0.3,0,0.8,0.2,1c1.1,0.3,2.3,0.5,3.4,0.7
			l2.3-0.4c0.1,0.2,0.2,0.5,0.4,0.7c0.3,0.4,1,0.5,3.6,0.5c2.4-0.1,4.8-0.3,7.2-0.7c1.1-0.2,1.4-0.8,1.1-1.2s-0.2-0.9-0.7-1.4
			c-0.6-0.5-1.4-0.7-2.2-0.6c-1.9,0.3-3.7-0.5-4.7-2.1c0,0,0-0.1-0.2-0.4c-0.1-0.1-0.1-0.2-0.2-0.3c-0.2-1.7,0.8-1.7,0.5-2.8
			c-0.1-1.2-0.4-2.4-0.7-3.6c-0.4-0.9,0.1-3.6,0.1-5.4s-0.3-7.4-0.1-10.4s-0.4-7.8-0.2-10.2S35.5,97,36,91.7s0.1-7.7,1.7-11.5
			c0.5-1.2,1.5-2.5,1.4-4.2v0.1c0,0,0.3-0.8,1-2.6c0.5-1.1,0.9-2.3,1-3.5c0.1-1.3,0.3-2.6,0.7-3.9c0.3-0.9,0.5-1.8,0.7-2.4h0.1
			c0.1,0,0.2,0,0.3,0c0.3,0,0.3-0.1,0.7-0.3c0.6-0.4,1-1,1.2-1.6C45,60.6,45.8,58.6,45.4,58.8z M8.2,62c-0.1-0.4-0.1-0.8,0-1.2
			c0.2-0.8,0.7-4.2,0.7-5s-0.2-0.9,0-1.8s0.7-0.7,0.7-1.7s0.5-1.2,0.3-1.9v-0.1c0-0.1,0-0.2,0-0.3c0.2,0.4,0.3,0.7,0.4,1.1
			c0,0.5,0,1.1-0.2,1.6c-0.1,0.6,0.1,1-0.1,1.5c-0.3,0.5-0.6,1.1-0.7,1.7c-0.2,0.9-0.9,5.2-0.9,6c-0.1,0.6-0.2,1.1-0.3,1.7
			C8.1,62.9,8.2,62.2,8.2,62z M5.6,70.8c-0.2-0.3-0.3-0.7-0.4-1.2c0-1.1,0.2-2.2,0.4-3.3v0.3c0.4,0,0.9,0,1.3-0.1c0,0,0.1,0,0.1-0.1
			c0,0,0.1,0,0.1-0.1c0.4-0.4,0.3-1,0.6-1.5c0.1-0.2,0.1-0.3,0.1-0.5c0.3,0.1,0.5,0.2,0.8,0.3c0,0.1-0.1,0.2-0.1,0.3
			c0,0.2,0,0.3-0.1,0.5c-0.3,1.2-0.7,2.3-1.2,3.3C6.8,69.5,6.2,70.2,5.6,70.8z M35.4,66.8c0-0.2,0-0.4-0.1-0.6l0,0l0,0
			c-0.1-0.3-0.2-0.6-0.3-0.8c0.6-0.1,1.1-0.1,1.3-0.4s0-1.8-0.2-3.4s-0.3-4.6-0.5-6.9s0-2.7-0.2-3.5c-0.2-0.6-0.2-1.2,0-1.7
			c0.4-0.9,0.6-2,0.6-3c0-0.2,0-0.6,0-0.9c0,0.1,0.1,0.2,0.1,0.3c0.1,0.7,0.2,0.8,0.2,1.3s0.1,0.9,0.1,1.3c0,0.2,0,0.5,0,0.7v0.3
			l0,0c0,0.3,0,0.5,0,0.8c0,1.2,0.2,2.3,0.5,3.4c0.2,0.8,0.3,1.7,0.2,2.5c0,0.5,0.2,1.2,0,1.5s-0.6,0-0.6,0c0,0.4,0.1,0.9,0.2,1.3
			l0.3,2c0.1,0.7,0.1,1.5,0.2,1.8c0,0,0,0.1,0.1,0.1c0,0.2,0.6,0.7,0.6,0.7s0-0.2,0-0.4l0,0c0.2,1.5,0.3,2.9,0.2,4.4
			c-0.1,0.8-0.5,1.6-1,2.2l-0.5,0.6l0.1,0.1L36.2,70C35.5,69.1,35.3,67.9,35.4,66.8L35.4,66.8z"/>
	</g>
</g>
<g>
	<path class="st1" d="M15.8,35.2c0.4-0.4,0.9-0.7,1.3-1c0.5-0.3,1-0.6,1.6-0.8c0.6-0.2,1.2-0.4,1.8-0.6c0.7-0.1,1.4-0.2,2.1-0.2
		c1,0,2,0.1,2.9,0.4c0.9,0.3,1.6,0.7,2.2,1.2c0.6,0.5,1.1,1.2,1.4,1.9c0.3,0.8,0.5,1.6,0.5,2.5c0,0.9-0.1,1.7-0.4,2.4
		c-0.3,0.7-0.6,1.2-1,1.7c-0.4,0.5-0.8,0.9-1.3,1.3s-0.9,0.7-1.3,1s-0.8,0.6-1.1,0.9c-0.3,0.3-0.5,0.7-0.5,1l-0.4,2.6h-3l-0.3-2.9
		c0-0.1,0-0.1,0-0.2c0,0,0-0.1,0-0.2c0-0.5,0.1-1,0.4-1.4c0.3-0.4,0.6-0.8,1-1.1c0.4-0.3,0.8-0.7,1.3-1c0.5-0.3,0.9-0.7,1.3-1.1
		c0.4-0.4,0.7-0.8,1-1.3c0.3-0.5,0.4-1,0.4-1.7c0-0.4-0.1-0.8-0.2-1.2c-0.2-0.3-0.4-0.6-0.7-0.9c-0.3-0.2-0.6-0.4-1-0.6
		c-0.4-0.1-0.8-0.2-1.3-0.2c-0.7,0-1.3,0.1-1.7,0.2c-0.5,0.1-0.9,0.3-1.2,0.5s-0.6,0.4-0.8,0.5c-0.2,0.2-0.4,0.2-0.6,0.2
		c-0.4,0-0.7-0.2-0.9-0.5L15.8,35.2z M19.2,56.4c0-0.4,0.1-0.7,0.2-1.1c0.1-0.3,0.3-0.6,0.6-0.9c0.2-0.2,0.5-0.4,0.9-0.6
		s0.7-0.2,1.1-0.2c0.4,0,0.7,0.1,1.1,0.2s0.6,0.3,0.9,0.6c0.2,0.2,0.4,0.5,0.6,0.9c0.1,0.3,0.2,0.7,0.2,1.1c0,0.4-0.1,0.7-0.2,1.1
		c-0.1,0.3-0.3,0.6-0.6,0.9c-0.2,0.2-0.5,0.4-0.9,0.6s-0.7,0.2-1.1,0.2c-0.4,0-0.7-0.1-1.1-0.2s-0.6-0.3-0.9-0.6
		c-0.2-0.2-0.4-0.5-0.6-0.9C19.3,57.2,19.2,56.8,19.2,56.4z"/>
</g>
</svg>
