<?xml version="1.0" encoding="utf-8"?>
<!-- Generator: Adobe Illustrator 25.4.1, SVG Export Plug-In . SVG Version: 6.00 Build 0)  -->
<svg version="1.1" id="Layer_1" xmlns="http://www.w3.org/2000/svg" xmlns:xlink="http://www.w3.org/1999/xlink" x="0px" y="0px"
	 viewBox="0 0 36.1 136.4" style="enable-background:new 0 0 36.1 136.4;" xml:space="preserve">
<style type="text/css">
	.st0{fill:#1C1C1C;}
	.st1{fill:#FFFFFF;}
</style>
<g id="Layer_2_00000160912262602090168860000015526472805147796116_">
	<g id="Layer_7">
		<path class="st0" d="M36,29.8c-0.3-0.3-1.6-1.5-1.6-2s-0.3-2.7-0.3-2.7l-2-2.1c-0.9-0.4-1.8-0.8-2.7-1.1c-0.4-0.8-0.6-1.7-0.7-2.6
			c-0.2-2.8-0.6-5.5-1.1-8.3c-0.4-1.5-2.1-11.1-7-10.9c-0.7-0.1-1.5,0-2.2,0.4c-1.1,0-2.3,0.4-3.2,1c-1.7,1.1-3.5,4.3-4.1,6.4
			S8.6,14.5,8.6,16S8.4,17.8,8,18.2c-0.5,0.7-0.6,1.5-0.3,2.3c0.3,0.4,0.9,0.8,1.1,1.3S8.4,22.6,8,22.7c-0.7,0-1.5,0.1-2.2,0.3
			c-0.7,0.3-2.3,1.1-2.7,2.1S3,26.8,2.6,27.2s-2,3.3-2.6,3.7c0.1,0.2,0.1,0.4,0.2,0.5l-0.2-0.1c0.4,0.9,1,1.7,1.7,2.3
			c-0.1,3-0.2,10-0.3,12.8c-0.1,3.7-0.2,7.2,0.2,9.2s1.3,3.9,1.6,6s0.7,5.7,1,6.4c0.3,1,0.5,2.1,0.7,3.2c0,0.2,0.1,0.5,0.2,0.7
			c-0.2,0.9-0.3,1.9-0.3,2.9c0.2,2.2,1,12.8,1.3,14.6c0.3,2.5,0.5,4.9,0.4,7.4c-0.1,1.1-0.1,2.3,0,3.4c0.5,0.4,0.9,1,0.9,1.6
			c-0.2,0.8-0.2,1.5-0.2,2.3c0.2,0.8,0.1,5.9,0.4,7.8s1.7,7.9,1.8,9.1s0.7,3.8,0.8,4.5c0.1,0.4,0.1,0.8,0.1,1.1l-0.1,0.8l-0.8,0.4
			c0,0.7,0.1,1.3,0.3,2c0.1,0.4,0.7,1.1,2.4,1.2c0,0.3,0,0.5,0,0.8c0.1,0.3,0,0.4-0.3,1.1s-0.9,0.8-1.1,1.3s-2.1,0.3-2.1,1.5
			s0.8,0.8,1.6,0.8h7.6c0.2-0.5,0.2-1,0-1.5c-0.4-0.7-0.4-0.7-0.4-1.3s0.1-1,0.1-1l-0.2-1.1c0-0.3-0.1-0.5-0.2-0.8
			c0.3-0.1,0.5-0.3,0.6-0.5c0.2-1,0.3-2.2,0.3-2.2l-0.8-1.1c-0.3-1.1-0.5-2.1-0.7-3.2v-12c0-1.6,0-3.2-0.3-4.7
			c-0.1-0.3-0.2-0.7-0.3-1l-0.3-1.5c0,0,0,0,0.1-0.1c0.7-0.4,0.9-1.3,0.5-2c-0.4-1.1,0-3,0.3-4.5s0.3-4.7,0.4-7.1
			c0-1.4,0.3-2.7,0.8-4c0.2-0.8,1-2.1,0.7-2.9c-0.2-0.8-0.4-1.6-0.4-2.4c0.6,0.7,0.9,1.6,1,2.5c-0.1,1.4-0.1,2.8,0.2,4.1
			c0.3,1.4-0.1,4.8,0.1,6.3s-0.6,4.4-0.4,5.4s0.2,2.2,0.6,2.9c0.3,0.7,0.4,1.4,0.3,2.2c0,0.5,0,1,0.1,1.5c-0.5,1.2-0.8,2.5-0.9,3.8
			c0,1.7-0.3,6.9-0.2,7.4s0.4,4.6,0.4,4.8c-0.3,0.6-0.4,1.3-0.3,2l0.4,1.4l-0.9,2.2c0,0.6,0.1,1.3,0.4,1.9c0.1,0.1,0.4,0.2,0.7,0.2
			c0,0.5,0,0.9-0.1,1.4c-0.2,0.8-0.2,0.8,0,1.3s0.3,0.6,0.1,1.1s-0.4,0.5-0.3,1.2s0.2,1.1,0.6,1.1h7c0,0,0.6-0.8,0.1-1.3
			s-0.9-0.7-1-1s-0.5-0.6-0.6-1s0-0.7-0.3-1c-0.2-0.2-0.4-0.5-0.6-0.8v-0.8c0.5,0,1,0,1.5-0.2c0.4-0.2,0.6-2.7,0.6-3
			S26,126.8,26,126s1.8-8.3,1.9-10.1s0.1-2.9,0.3-4.6s0.2-3.2,0.2-3.2s0.7-2.2,0.3-3.2c0,0,0-0.1,0-0.1s0.1-0.2-0.1-0.3
			c-0.1-0.8,0-1.6,0.2-2.4c-0.1-1.9,0-3.9,0.2-5.8c0.4-1.2,0.6-4,1-5.1s0.8-3,0.8-3c-0.2-1.6-0.3-3.2-0.2-4.8l0.9-3.2l0.4-3v-5.2
			l0,0c0,0,0-0.4,0-1c0.2-0.8,0.3-1.7,0.5-2.2c0.5-1.3,0.8-2.7,0.9-4.1c0.1-1.3,0-2-0.1-3.3c0-1.5,0.5-6.8,0.6-9.6
			c0.1-1.8,0-3.5-0.2-5.3c-0.2-1.8-0.3-3.6-0.1-5.4c0.2-2.9,1.1-8.8,1.2-9.6c0.4-0.3,0.8-0.6,1.2-1C36.2,30.1,36.2,30,36,29.8z
			 M6.8,55c0-1.2-0.4-6.3-0.5-7.4c0-0.9,0-1.9,0.1-2.8c0,0,0-3.6-0.1-5.1c0-0.2,0-0.4-0.1-0.6v0.2c0.1,1,0.2,2,0.3,3
			c0.2,1,0.4,2,0.5,3.1c-0.1,1.7,0.1,3.4,0.4,5c0.3,0.7-0.3,2.2-0.2,3.1c0.1,1.5,0,3.1-0.2,4.6c0,0.1,0,0.2-0.1,0.3
			C6.9,56.9,6.8,55.6,6.8,55z"/>
	</g>
</g>
<g>
	<path class="st1" d="M12.2,35.2c0.4-0.4,0.9-0.7,1.3-1c0.5-0.3,1-0.6,1.6-0.8c0.6-0.2,1.2-0.4,1.8-0.6c0.7-0.1,1.4-0.2,2.1-0.2
		c1,0,2,0.1,2.9,0.4c0.9,0.3,1.6,0.7,2.2,1.2c0.6,0.5,1.1,1.2,1.4,1.9c0.3,0.8,0.5,1.6,0.5,2.5c0,0.9-0.1,1.7-0.4,2.4
		c-0.3,0.7-0.6,1.2-1,1.7c-0.4,0.5-0.8,0.9-1.3,1.3s-0.9,0.7-1.3,1s-0.8,0.6-1.1,0.9c-0.3,0.3-0.5,0.7-0.5,1L20,49.7h-3l-0.3-2.9
		c0-0.1,0-0.1,0-0.2c0,0,0-0.1,0-0.2c0-0.5,0.1-1,0.4-1.4c0.3-0.4,0.6-0.8,1-1.1c0.4-0.3,0.8-0.7,1.3-1c0.5-0.3,0.9-0.7,1.3-1.1
		c0.4-0.4,0.7-0.8,1-1.3c0.3-0.5,0.4-1,0.4-1.7c0-0.4-0.1-0.8-0.2-1.2c-0.2-0.3-0.4-0.6-0.7-0.9c-0.3-0.2-0.6-0.4-1-0.6
		c-0.4-0.1-0.8-0.2-1.3-0.2c-0.7,0-1.3,0.1-1.7,0.2c-0.5,0.1-0.9,0.3-1.2,0.5s-0.6,0.4-0.8,0.5c-0.2,0.2-0.4,0.2-0.6,0.2
		c-0.4,0-0.7-0.2-0.9-0.5L12.2,35.2z M15.6,56.4c0-0.4,0.1-0.7,0.2-1.1c0.1-0.3,0.3-0.6,0.6-0.9c0.2-0.2,0.5-0.4,0.9-0.6
		s0.7-0.2,1.1-0.2c0.4,0,0.7,0.1,1.1,0.2s0.6,0.3,0.9,0.6c0.2,0.2,0.4,0.5,0.6,0.9c0.1,0.3,0.2,0.7,0.2,1.1c0,0.4-0.1,0.7-0.2,1.1
		c-0.1,0.3-0.3,0.6-0.6,0.9c-0.2,0.2-0.5,0.4-0.9,0.6s-0.7,0.2-1.1,0.2c-0.4,0-0.7-0.1-1.1-0.2s-0.6-0.3-0.9-0.6
		c-0.2-0.2-0.4-0.5-0.6-0.9C15.7,57.2,15.6,56.8,15.6,56.4z"/>
</g>
</svg>
